<svg id="Layer_1" data-name="Layer 1" xmlns="http://www.w3.org/2000/svg" viewBox="0 0 116.92 25.22"><defs><style>.cls-1{fill:#00a7c6;}</style></defs><title>Untitled-1trial</title><g id="Symbol_3" data-name="Symbol 3"><path class="cls-1" d="M7.16,19.75H5.92l-3.08,1.4.69-3.81V6.82A2.32,2.32,0,0,1,5.85,4.51H16.94a2.26,2.26,0,0,1,1.43.5,2.29,2.29,0,0,1,.88,1.81v.52l1.33-.49V6.78a3.64,3.64,0,0,0-3.64-3.6H5.85A3.65,3.65,0,0,0,2.2,6.82v10.4L1.08,23.41,6.2,21.08H9.68l-.5-1.33Z" transform="translate(-1.08 -3.18)"/><polygon class="cls-1" points="19.31 7.37 19.31 7.37 19.38 7.34 19.31 7.37"/><path class="cls-1" d="M19.26,17.43A2.3,2.3,0,0,1,17,19.73H12.82l.09.24.41,1.09H17a3.63,3.63,0,0,0,2-.58A3.57,3.57,0,0,0,20.23,19a3.09,3.09,0,0,0,.14-.32,3.68,3.68,0,0,0,.22-1.24V13h0V10.65L19.26,11Z" transform="translate(-1.08 -3.18)"/><path class="cls-1" d="M28.88,22.23V11.88a3.63,3.63,0,0,0-3.63-3.63h-11a3.64,3.64,0,0,0-3.63,3.63v7.86h0v2.92h0a3.63,3.63,0,0,0,3.62,3.42H24.9L30,28.4Zm-3.69,2.52h-11a2.31,2.31,0,0,1-2.3-2.27V11.88a2.28,2.28,0,0,1,1.09-2,2.25,2.25,0,0,1,1.21-.35h11a2.31,2.31,0,0,1,2.31,2.3V22.35l.68,3.79Z" transform="translate(-1.08 -3.18)"/><polygon class="cls-1" points="19.41 7.34 19.5 7.34 19.5 7.43 19.5 7.29 19.39 7.34 19.41 7.34"/><polygon class="cls-1" points="19.31 7.37 18.18 7.8 19.31 7.37 19.31 7.37"/><polygon class="cls-1" points="19.41 7.34 19.39 7.34 19.38 7.34 19.31 7.37 19.31 7.37 18.18 7.8 19.5 7.48 19.5 7.43 19.5 7.34 19.41 7.34"/><path class="cls-1" d="M8.56,5.74l.08,0H7.38A2.52,2.52,0,0,0,4.86,8.21V9.43A5.21,5.21,0,0,1,8.56,5.74Z" transform="translate(-1.08 -3.18)"/><path class="cls-1" d="M16.19,10.85l.06,0h-1a2,2,0,0,0-2,2v1A4.16,4.16,0,0,1,16.19,10.85Z" transform="translate(-1.08 -3.18)"/></g><g id="Text_3" data-name="Text 3"><path class="cls-1" d="M46.89,20.07c1.59,0,2.24-.54,2.24-1.43s-.76-1.45-2.6-1.59l-5.44-.44c-2.48-.2-3.88-1.09-3.88-3,0-2.17,1.77-3,4-3h9v1.61H41c-1.28,0-2,.4-2,1.34s.58,1.32,2.52,1.47l5.24.42c2.62.21,4.19,1,4.19,3.17,0,1.85-1.23,3.1-4.2,3.1h-9.7V20.07Z" transform="translate(-1.08 -3.18)"/><path class="cls-1" d="M89.22,10.57l-4,9.06a3.39,3.39,0,0,1-6.27.2L78,17.88,77,19.83a3.39,3.39,0,0,1-6.27-.2l-4-9.06h1.9L72.38,19c.42.94.86,1.17,1.52,1.17a1.61,1.61,0,0,0,1.58-1.06L77,15.91l-2.58-5.34h1.8L78,14.16l1.74-3.59h1.82l-2.6,5.34,1.56,3.18a1.54,1.54,0,0,0,1.56,1.06c.66,0,1.12-.23,1.54-1.17l3.72-8.41Z" transform="translate(-1.08 -3.18)"/><path class="cls-1" d="M107.18,10.57v6.62c0,2,.91,2.73,3.49,2.73H118v1.76h-7.33c-3.62,0-5.27-1.29-5.27-4.49V10.57Z" transform="translate(-1.08 -3.18)"/><path class="cls-1" d="M59.58,10.5c-1.73,0-2.59.88-3.3,2.33l-4.47,8.93h1.92l1.51-3h0L58,13.2a1.64,1.64,0,0,1,3.11,0l2.78,5.54h0l1.51,3h1.92l-4.47-8.93C62.16,11.38,61.31,10.5,59.58,10.5Z" transform="translate(-1.08 -3.18)"/><path class="cls-1" d="M96.37,10.42c-1.73,0-2.59.88-3.3,2.32L88.6,21.68h1.92l1.51-3h0l2.78-5.54a1.64,1.64,0,0,1,3.1,0l2.79,5.54h0l1.51,3h1.92l-4.47-8.94C99,11.3,98.1,10.42,96.37,10.42Z" transform="translate(-1.08 -3.18)"/></g></svg>